/* XPM */
static char *ab790d7e486f4ff7c8d2ba5f3eda8bb0bfsNkfJJndC0fES3[] = {
/* columns rows colors chars-per-pixel */
"32 32 4 1 ",
"  c #497195",
". c #599CC3",
"X c #9DDAE6",
"o c #CCF2F0",
/* pixels */
"    ..XX..    .. X.  ..X..   ...",
"  ...X........ ..X....o.. ....oX",
"....o.......  ..o.XoX.X. ..ooX..",
". ...o.  ......o.....o...oX... .",
". ..o.o....  .X..  ..X..o..X... ",
"..Xo..o.o. ..X..... ..X.X...Xoo.",
"Xo.....X.X...o........o.o. . ..o",
"... ..o...o.X.o... ...o..X... ..",
"  ...X.....o...o. ..Xo.. .X... .",
" ...X.. ..o....X...o... ...Xo...",
"XoX.o.. .o.  ...X.o.X.X.X.o..X..",
"...X.X..X. ...X..X...X...o.o..oX",
"  ...o..o. ..X.X... .o...o..oo..",
"    ..o.o.. .o.X.  .X....o....X.",
"...  ..o... .o.o....o ..X.. ..X.",
"XXo.....Xo..X...X..o. .X.. ..X.o",
"...Xo.....X.o. .o.o...X.....X...",
".....X..XX...X ..o. .X.Xo.oX....",
".....o.o..  .o ..o ..o...o... ..",
"  ....o...XX.o..o...X...X... .. ",
"..  .X. .o..X..o.X..o...X.. ... ",
".....o  o...o.X...X.o. .o.. ... ",
"...oo..o.   .o.  ..X. ..o... ...",
"XXo...o......X....o....X.X... .X",
"...o..X..  .X.o..o.. .o. .X...o.",
" ..X. .o....o..oo... .X.. .X.X..",
"XXo.. ..X.Xo..X .X.. ..X. .X.o .",
"...Xo....o....X...o.....X.. X...",
".....o.oX.X  ..o...o...X....X.. ",
"......X...o.. .X. ..X.o..  .o.. ",
"    ...XX..o..o... ..o.oX..X....",
".........X.X.X... ...X...oX..  ."
};
