/* XPM */
static char *result[] = {
/* columns rows colors chars-per-pixel */
"32 32 210 2 ",
"   c #497195",
".  c #599CC3",
"X  c #9DDAE6",
"o  c #599CC2",
"O  c #60A947",
"+  c #548C70",
"@  c #5BA09D",
"#  c #CCF2F0",
"$  c #5CA190",
"%  c #5EA34E",
"&  c #5CA37C",
"*  c #60A84E",
"=  c #5FA658",
"-  c #70B671",
";  c #5C9DBE",
":  c #8BC8A1",
">  c #7ABB70",
",  c #5F9EB8",
"<  c #A2BE42",
"1  c #5FA949",
"2  c #5A9CC2",
"3  c #799A68",
"4  c #6EA69D",
"5  c #63A774",
"6  c #5A9EAB",
"7  c #96B34D",
"8  c #8AB36B",
"9  c #4A7294",
"0  c #A3C14C",
"q  c #5EA761",
"w  c #6EA69F",
"e  c #B5D691",
"r  c #94B75B",
"t  c #83B444",
"y  c #5EA763",
"u  c #89B26F",
"i  c #A2BE43",
"p  c #9DD5CA",
"a  c #8FB843",
"s  c #8FC06D",
"d  c #68A3A8",
"f  c #C7EBDC",
"g  c #74AF45",
"h  c #7CAD81",
"j  c #5E9BC1",
"k  c #B5D693",
"l  c #86B544",
"z  c #5B9EAF",
"x  c #4F7590",
"c  c #A3CFDF",
"v  c #649AC1",
"b  c #A18BB5",
"n  c #CB80AE",
"m  c #9FBD47",
"M  c #5EA665",
"N  c #A7C458",
"B  c #CCE8EA",
"V  c #D080AD",
"C  c #948EB8",
"Z  c #62AA47",
"A  c #82AF79",
"S  c #4C7295",
"D  c #CB81AE",
"F  c #ADBED4",
"G  c #A1BE43",
"H  c #67AE52",
"J  c #A0BD42",
"K  c #ACCB6C",
"L  c #5A9CC3",
"P  c #CB88B2",
"I  c #9C8CB7",
"U  c #A1C25C",
"Y  c #8EB564",
"T  c #5A9DBA",
"R  c #73AF46",
"E  c #5B9DBE",
"W  c #A4CDDE",
"Q  c #CEBDD1",
"!  c #629AC2",
"~  c #CEABC6",
"^  c #80AF7D",
"/  c #5D8283",
"(  c #8DB744",
")  c #629AC1",
"_  c #CDBDD1",
"`  c #CF80AD",
"'  c #C383B0",
"]  c #D08CB4",
"[  c #CA81AE",
"{  c #73A895",
"}  c #9FCE9D",
"|  c #5A9FAF",
" . c #63AA47",
".. c #60A0B6",
"X. c #9B8CB6",
"o. c #6B98BF",
"O. c #C383AF",
"+. c #978DB8",
"@. c #75A991",
"#. c #A1BD43",
"$. c #70B261",
"%. c #B3DCAF",
"&. c #97B855",
"*. c #CEB0C9",
"=. c #AE88B3",
"-. c #A2D2E1",
";. c #5D9BC2",
":. c #547397",
">. c #6C8393",
",. c #C1C663",
"<. c #9EAF44",
"1. c #978451",
"2. c #A58F61",
"3. c #9B8757",
"4. c #6AA048",
"5. c #E5C88E",
"6. c #C984A9",
"7. c #D082AE",
"8. c #A989B4",
"9. c #BE84B1",
"0. c #6D98BF",
"q. c #5E9DC1",
"w. c #E7C991",
"e. c #F8CE8B",
"r. c #B0A359",
"t. c #927F4D",
"y. c #AA9367",
"u. c #A28D5F",
"i. c #8D824B",
"p. c #D6B676",
"a. c #ACC88D",
"s. c #8594BA",
"d. c #CD80AC",
"f. c #CE97BA",
"g. c #4D7296",
"h. c #85AAB4",
"j. c #E3BE7E",
"k. c #917E4B",
"l. c #A69063",
"z. c #A79063",
"x. c #9A994A",
"c. c #CCC665",
"v. c #D68BA8",
"b. c #B4A1AA",
"n. c #A3D1DF",
"m. c #7C94BD",
"M. c #6799C1",
"N. c #DFE3C4",
"B. c #937F4C",
"V. c #927E4C",
"C. c #989549",
"Z. c #AC955A",
"A. c #A28C5D",
"S. c #A89066",
"D. c #C7809F",
"F. c #D78EA7",
"G. c #EDCF96",
"H. c #629EC0",
"J. c #79A5B8",
"K. c #F0C786",
"L. c #958150",
"P. c #DFB484",
"I. c #6DA2BB",
"U. c #F7CF8E",
"Y. c #EAC382",
"T. c #988453",
"R. c #A18B5D",
"E. c #A89265",
"W. c #917440",
"Q. c #8F7844",
"!. c #907D49",
"~. c #988452",
"^. c #A99366",
"/. c #968250",
"(. c #F0CC8E",
"). c #C9AA6E",
"_. c #998450",
"`. c #927F4C",
"'. c #93804C",
"]. c #9B8651",
"[. c #A9905A",
"{. c #805F25",
"}. c #816027",
"|. c #BD9B5E",
" X c #B0965E",
".X c #B49961",
"XX c #A48D57",
"oX c #9A8551",
"OX c #CFAE71",
"+X c #C1BD9F",
"@X c #F3CA87",
"#X c #F5CE8E",
"$X c #A5B4A9",
"%X c #D4ECDF",
"&X c #7DA8B7",
"*X c #CBC09B",
"=X c #F3CE90",
"-X c #F7CE8C",
";X c #F7CE8B",
":X c #F7CE8D",
">X c #F3CC8D",
",X c #EFCB8E",
"<X c #F5D092",
"1X c #F4CD8C",
"2X c #ADD8D6",
"3X c #5F9DC1",
"4X c #9BB1AC",
"5X c #E6C891",
"6X c #E1C793",
"7X c #D9E8D3",
/* pixels */
"        . . X X . o O O +   . .   X .     . . X . .       . . . ",
"    . . . X . . . . O O O @   . . X . . . . # . .   . . . . # X ",
". . . . # . . . . . $ O O % . . # . X # X . X .   . . # # X . . ",
".   . . . # .     . & O O * . # . . . . . # . . . # X . . .   . ",
".   . . # . # . . o O O O = X . .     . . X . . # . . X . . .   ",
". . X # . . # . # @ O O O - . . . . .   . . X . X . . . X # # . ",
"X # . . . . . X ; : O O O > . . . . . . . . # . # .   .   . . # ",
". . .   . . # , < < O O O 1 # . . 2 3 2 . . # . . X . . .   . . ",
"    . . . X . 4 < < 5 O O O 6 # . 7 < 8 X # . .   . X . . .   . ",
"  . . . X . . 9 < < 0 O O O q X w < < e . . .   . . . X # . . . ",
"X # X . # . .   r < < t O O y u < < i . X . X . X . # . . X . . ",
". . . X . X . . p < < a O O s < < < d . . X . . . # . # . . # X ",
"    . . . # . . f < < g O O h < < < .   . # . j . # . . # # . . ",
"        . . # . k < < l O O z < < < x . c v b n . # . . . . X . ",
". . .     . . # m < < < O O M N < < u . B V V C X . .   . . X . ",
"X X # . . . . . < < < < Z O O A < < m # . S D F . .   . . X . # ",
". . . X # . . . G < < < H O O J < < K . L V P I . . . . X . . . ",
". . . . . X . . U < < Y T O R < < < E   L V V W Q ! ~ X . . . . ",
". . . . . # . # ^ < < / o O ( < < < S V ) _ ` . ' ] [ . .   . . ",
"    . . . . # . { < < } | O  .< < < ..X.V o.V O.V V +..   . .   ",
". .     . X .   @.< < #.$.O O %.< < &.C *.V V =.-.;.. :.. . .   ",
". . . . . #   >.,.<.1.2.3.4.O 5.< < < 6.7.V V 8.# 9.0.V ) . .   ",
". . . # # q.w.e.r.t.y.y.y.u.i.p.< < < a.s.d.V V f.V V V g.. . . ",
"X X # . h.e.e.j.k.l.y.y.y.y.y.y.z.x.< c.e.v.V V b.n.m.M..   . X ",
". . . N.e.e.e.B.V.y.y.y.y.y.y.y.y.y.C.Z.A.S.D.F.e.e.G.H.. . # . ",
"  . J.e.e.e.K.k.k.y.y.y.y.y.y.y.y.y.L.k.y.y.y.P.e.e.e.e.I.X . . ",
"X X U.e.e.e.Y.k.k.k.T.R.E.y.y.y.W.Q.!.k.~.^.y./.e.e.e.e.(.#   . ",
". . e.e.e.e.e.)._.`.k.k.k.'.].[.{.}.|. X.XXXoXOXe.e.e.e.e.. . . ",
". . +Xe.e.e.e.e.e.e.e.e.e.e.e.e.@X@Xe.e.e.e.e.e.e.e.e.e.#X. .   ",
". . . $Xe.e.e.e.e.e.e.e.e.e.e.e.e.e.e.e.e.e.e.e.e.e.e.e.%X. .   ",
"        . &X*X=X-X;X;X:X>X,X<X,X1Xe.e.e.e.e.e.e.e.e.;X2X. . . . ",
". . . . . . . . . X . X . X . . .   3X4X5Xe.e.;X6X7XX . .     . "
};
