/* XPM */
static char *e41bc98245d04648ebda0c8d5ddf6dd6TaMZ75bhpLrwqM2B[] = {
/* columns rows colors chars-per-pixel */
"32 32 175 2 ",
"   c #1C1004",
".  c #271604",
"X  c #2A1A05",
"o  c #2A0A08",
"O  c #162C02",
"+  c #152419",
"@  c #2A200A",
"#  c #3A250B",
"$  c #263504",
"%  c #3D390D",
"&  c #392A14",
"*  c #3E321F",
"=  c #3E3A2B",
"-  c #4B1C0F",
";  c #432A0B",
":  c #56360D",
">  c #5B2514",
",  c #5D3513",
"<  c #7C2F1A",
"1  c #793B1F",
"2  c #632E20",
"3  c #783422",
"4  c #274704",
"5  c #344E07",
"6  c #2C5705",
"7  c #315808",
"8  c #346609",
"9  c #3D7609",
"0  c #386B1B",
"q  c #254436",
"w  c #336024",
"e  c #52470F",
"r  c #494211",
"t  c #4D4B11",
"y  c #5C421B",
"u  c #694319",
"i  c #734413",
"p  c #7B4E1A",
"a  c #7A461A",
"s  c #7B5A1A",
"d  c #51620E",
"f  c #7C621A",
"g  c #767616",
"h  c #5C4620",
"j  c #67502F",
"k  c #75562B",
"l  c #78582B",
"z  c #68593A",
"x  c #696739",
"c  c #3B4A4E",
"v  c #394A56",
"b  c #385368",
"n  c #3A5976",
"m  c #38617A",
"M  c #4F5A4F",
"N  c #585749",
"B  c #535F5D",
"V  c #535952",
"C  c #6C6041",
"Z  c #6B7E41",
"A  c #636458",
"S  c #776E57",
"D  c #545E62",
"F  c #4D6660",
"G  c #446A7D",
"H  c #527573",
"J  c #596666",
"K  c #6E6F64",
"L  c #6B7061",
"P  c #6D7E7A",
"I  c #82211B",
"U  c #94271F",
"Y  c #902D1F",
"T  c #93301F",
"R  c #963632",
"E  c #AD2D25",
"W  c #B62E25",
"Q  c #BC3027",
"!  c #B73127",
"~  c #B23832",
"^  c #C23228",
"/  c #D6382D",
"(  c #894D1D",
")  c #83491C",
"_  c #82511B",
"`  c #8B561B",
"'  c #855A1C",
"]  c #8A591D",
"[  c #937D1E",
"{  c #8E5D2A",
"}  c #8A5C25",
"|  c #8C473A",
" . c #9D6828",
".. c #99753E",
"X. c #AA6D23",
"o. c #A77128",
"O. c #A97032",
"+. c #BA7A2F",
"@. c #C97C2A",
"#. c #A94745",
"$. c #D64640",
"%. c #CC5350",
"&. c #519B1E",
"*. c #46890B",
"=. c #7A8259",
"-. c #AB8024",
";. c #B98F27",
":. c #BA9226",
">. c #C6812F",
",. c #D4852D",
"<. c #D48832",
"1. c #DE953B",
"2. c #C58637",
"3. c #E59736",
"4. c #CBA62A",
"5. c #F5AF33",
"6. c #EFBD31",
"7. c #ECC92F",
"8. c #FACC33",
"9. c #B38240",
"0. c #AE8950",
"q. c #B28C57",
"w. c #8F8870",
"e. c #94866B",
"r. c #A68F66",
"t. c #BA9A69",
"y. c #AC9975",
"u. c #BBA27A",
"i. c #DF9C4C",
"p. c #E8A24B",
"a. c #E7A145",
"s. c #F0B25A",
"d. c #E6A958",
"f. c #CFAC75",
"g. c #EFB666",
"h. c #F1BA69",
"j. c #F2BA65",
"k. c #F0BF79",
"l. c #F2C074",
"z. c #F2C37C",
"x. c #3E6982",
"c. c #456A87",
"v. c #4B7180",
"b. c #4A7589",
"n. c #476E92",
"m. c #497195",
"M. c #4A7F9C",
"N. c #4A7A95",
"B. c #4B819F",
"V. c #62888F",
"C. c #4E88AB",
"Z. c #4A81A1",
"A. c #528DB1",
"S. c #5491B4",
"D. c #5595BA",
"F. c #5798BE",
"G. c #7BA4A9",
"H. c #599CC3",
"J. c #899988",
"K. c #93A093",
"L. c #EAC387",
"P. c #F2C785",
"I. c #F3CA8B",
"U. c #F2C886",
"Y. c #F3CD92",
"T. c #F3D29C",
"R. c #F5D5A4",
"E. c #F5DDB6",
"W. c #8DC3CE",
"Q. c #94CBD5",
"!. c #BEE0DE",
"~. c #9DDAE6",
"^. c #BFE3E1",
"/. c #C9EFED",
"(. c #CCF2F0",
/* pixels */
"m.m.m.m.H.H.~.~.H.H.m.m.m.m.H.H.m.~.H.m.m.H.H.~.H.H.m.m.m.H.H.H.",
"m.m.H.H.H.~.H.H.H.H.H.H.H.H.m.H.H.~.H.H.H.H.(.H.H.m.H.H.H.H.(.~.",
"H.H.H.H.(.H.H.H.H.H.H.H.m.m.H.H.(.H.~.(.~.H.~.H.m.H.H.(.(.~.H.H.",
"H.m.H.H.H.(.H.m.m.H.H.H.H.H.H.(.H.H.H.H.H.(.H.H.H.(.~.H.H.H.m.H.",
"H.m.H.H.(.H.(.H.H.H.H.m.m.M.V.n m n m.H.H.~.H.H.(.H.H.~.H.H.H.m.",
"H.H.~.(.H.H.(.H.(.H.c.c.D w.u.u.u.e.V b A.H.~.H.~.H.H.H.~.(.(.H.",
"~.(.H.H.H.H.H.~.H.G.K f.Y.I.U.U.P.P.P.t.S v./.H.(.H.m.H.m.H.H.(.",
"H.H.H.m.H.H.(.H.N.y.I.R.R.R.U.Y.U.R.R.I.P.9.K.H.H.~.H.H.H.m.H.H.",
"m.m.H.H.H.~.H.H.D L.U.U.P.Y.U.E.U.I.Y.I.z.a.z A.m.H.~.H.H.H.m.H.",
"m.H.H.H.~.H.H.D y.L.U.P.P.P.U.I.U.U.U.I.I.i.O.v H.H.H.~.(.H.H.H.",
"~.(.~.H.(.H.D.A L.P.R.U.P.Y.I.R.U.R.I.I.Y.g.3.z W.H.(.H.H.~.H.H.",
"H.H.H.~.H.~.S.z g.P.P.P.P.E.Y.P.P.T.U.P.U.g.3.l C.(.H.(.H.H.(.~.",
"m.m.H.H.H.(.A.= 2.g.P.P.P.P.P.P.P.P.P.P.l.p.+.M D.(.H.H.(.(.H.H.",
"m.m.m.m.H.D.J.-.p <.s.z.P.P.P.P.P.z.g.a.3.@.` z G /.H.H.H.H.~.H.",
"H.H.H.m.n.F [ 7.y > } @.1.d.k.P.g.1.,.X._ > ( :.=.D.H.m.H.H.~.H.",
"~.~.(.H.H.b.M y u #.#.| 3 a { { } ) < T E Y p & c.H.m.H.H.~.H.(.",
"H.H.H.~.(.F.b.k i 1 R %.$.~ U U U W / Q U - # # b H.H.H.~.H.H.H.",
"H.H.H.H.H.~.G ` i ` ' - W Q ^ Q Q I o , ] # ; & P H./.~.H.H.H.H.",
"H.H.H.H.H.(.B.l X.i i u   p p f s X.5.' : : X + C./.H.H.H.m.H.H.",
"m.m.H.H.H.H.^.q 0 r i 1 a & ;.8.8.8.4.: : X 4 4 H H.H.H.m.H.H.m.",
"H.H.m.m.H.~.H.n w &.8 6 % . . : 7.4.# X $ 8 O q W.H.H.m.H.H.H.m.",
"H.H.H.H.H.(.N.m.A =.9 *.9 9 4 4 g d $ 8 7 t * B.(.H.H.m.H.H.H.m.",
"H.H.H.(.(.H.H.(.B f.r.x t t r 6 4 6 5 : _ @.N D.(.H.H.H.m.H.H.H.",
"~.~.(.H.H.H.(.H.B.r.z.z.l.l.h.q.O. .-.<.,. .c.~.H.~.H.H.H.m.H.~.",
"H.H.H.(.H.H.~.H.F.D ..0.h.z.P.P.z.i.<.` p V ^.H.m.H.~.H.H.H.(.H.",
"m.H.H.~.H.m.H.(.H.F.C.N.K x { { } j c B.c.D.~.H.H.m.H.~.H.~.H.H.",
"~.~.(.H.H.m.H.H.~.H.~.(.H.D.Q.c.S.Q.H.H.m.H.H.~.H.m.H.~.H.(.m.H.",
"H.H.H.~.(.H.H.H.H.(.H.H.H.H.~.H.H.H./.H.H.H.H.H.~.H.H.m.~.H.H.H.",
"H.H.H.H.H.(.H.(.~.H.~.m.m.H.H.(.H.H.H.(.H.H.H.~.H.H.H.H.~.H.H.m.",
"H.H.H.H.H.H.~.H.H.H.(.H.H.m.H.~.H.m.H.H.~.H.(.H.H.m.m.H.(.H.H.m.",
"m.m.m.m.H.H.H.~.~.H.H.(.H.H.(.H.H.H.m.H.H.(.H.(.~.H.H.~.H.H.H.H.",
"H.H.H.H.H.H.H.H.H.~.H.~.H.~.H.H.H.m.H.H.H.~.H.H.H.(.~.H.H.m.m.H."
};
