/* XPM */
static char *_50c20cbb1874afcfb6e6763fc7ba3b3N7MnQTJ0hpRPAeTJ[] = {
/* columns rows colors chars-per-pixel */
"32 32 245 2 ",
"   c #497195",
".  c #599CC3",
"X  c #9DDAE6",
"o  c #5B9FBD",
"O  c #5A9EBD",
"+  c #CCF2F0",
"@  c #5A9DC0",
"#  c #6FB282",
"$  c #9AD393",
"%  c #5A9EBF",
"&  c #64AB8C",
"*  c #89C24C",
"=  c #89C24B",
"-  c #4A7790",
";  c #4D7A90",
":  c #69AE8C",
">  c #86C254",
",  c #8BC34A",
"<  c #82BE50",
"1  c #629A76",
"2  c #5BA0B8",
"3  c #599EB9",
"4  c #57AA83",
"5  c #65B270",
"6  c #80C260",
"7  c #79BB5C",
"8  c #60A866",
"9  c #5FB068",
"0  c #78BD4C",
"q  c #7DBE4C",
"w  c #5B9EC0",
"e  c #B9E8D8",
"r  c #78BB58",
"t  c #77BD4C",
"y  c #80C04C",
"u  c #59A0B2",
"i  c #59A0B0",
"p  c #87C55B",
"a  c #70BB4D",
"s  c #82C04B",
"d  c #83C25B",
"f  c #B7E7D6",
"g  c #5A9EC0",
"h  c #56A68E",
"j  c #9ED8B0",
"k  c #71B667",
"l  c #79BD4C",
"z  c #71B666",
"x  c #5DA897",
"c  c #9BD7A7",
"v  c #67B279",
"b  c #69AC5E",
"n  c #81C04B",
"m  c #7BC16E",
"M  c #82CAA1",
"N  c #5EA5AB",
"B  c #70B25C",
"V  c #82C36F",
"C  c #83C14B",
"Z  c #7EBF4C",
"A  c #83C36F",
"S  c #7DC167",
"D  c #5DA3B0",
"F  c #76B45B",
"G  c #7CBF4F",
"H  c #86C14B",
"J  c #7CBF4C",
"K  c #84C14B",
"L  c #8AC769",
"P  c #5DA3B1",
"I  c #67AC94",
"U  c #82BF4E",
"Y  c #7CBE4C",
"T  c #78B949",
"R  c #76A63F",
"E  c #74A23E",
"W  c #73B146",
"Q  c #85C250",
"!  c #599EBB",
"~  c #71AE5E",
"^  c #7FBC4A",
"/  c #6E9C3B",
"(  c #7A8226",
")  c #9C730F",
"_  c #996613",
"`  c #757A23",
"'  c #8ECA73",
"]  c #4A7690",
"[  c #5E8D93",
"{  c #9A7618",
"}  c #E07A09",
"|  c #FA9102",
" . c #FF8C06",
".. c #FF8B07",
"X. c #FA9500",
"o. c #E08403",
"O. c #846718",
"+. c #93B9B6",
"@. c #C68115",
"#. c #FF8D06",
"$. c #FF9502",
"%. c #FF830B",
"&. c #FF8709",
"*. c #FF9203",
"=. c #FF9701",
"-. c #FF8809",
";. c #FF9303",
":. c #C58115",
">. c #608A9B",
",. c #93C9D4",
"<. c #3D6A85",
"1. c #90C5D0",
"2. c #9B7035",
"3. c #FF9004",
"4. c #FF8E05",
"5. c #FF8908",
"6. c #FF800D",
"7. c #FF9402",
"8. c #AA7D3D",
"9. c #4A748C",
"0. c #155A93",
"q. c #5B7577",
"w. c #CE740E",
"e. c #FF860A",
"r. c #FF9601",
"t. c #FF810C",
"y. c #FF9104",
"u. c #84612D",
"i. c #255070",
"p. c #153159",
"a. c #6B6B57",
"s. c #E07907",
"d. c #FF840A",
"f. c #FF8F05",
"g. c #FF9700",
"h. c #FF8E06",
"j. c #9D6219",
"k. c #3E4F52",
"l. c #345373",
"z. c #A86D3D",
"x. c #EF7F0D",
"c. c #C67A1A",
"v. c #DC830E",
"b. c #FF8C07",
"n. c #FF7C0F",
"m. c #FF8A07",
"M. c #FF8A08",
"N. c #FD9004",
"B. c #92692D",
"V. c #94682A",
"C. c #9A6C38",
"Z. c #4D6F89",
"A. c #50656A",
"S. c #E67C07",
"D. c #FF9005",
"F. c #915725",
"G. c #91641F",
"H. c #615838",
"J. c #94A4B1",
"K. c #4E6B7F",
"L. c #D97F02",
"P. c #FF9800",
"I. c #FF7B10",
"U. c #946929",
"Y. c #5590B3",
"T. c #C87506",
"R. c #CB731C",
"E. c #5E5B4C",
"W. c #936B31",
"Q. c #FB8907",
"!. c #FF850B",
"~. c #FF8B08",
"^. c #FF810D",
"/. c #FF870A",
"(. c #C87904",
"). c #91C7D2",
"_. c #548FB1",
"`. c #CC610D",
"'. c #FF9403",
"]. c #FF850A",
"[. c #FF9204",
"{. c #FF840B",
"}. c #CC7801",
"|. c #CC7404",
" X c #FF7A10",
".X c #E3860A",
"XX c #58594F",
"oX c #585B4E",
"OX c #E36D17",
"+X c #CC5D10",
"@X c #90C5CF",
"#X c #CC7503",
"$X c #DD7209",
"%X c #DD700A",
"&X c #B27124",
"*X c #597A94",
"=X c #CC6B08",
"-X c #CC6F06",
";X c #FD800C",
":X c #B66520",
">X c #2985AD",
",X c #2988AC",
"<X c #A26B17",
"1X c #C27A17",
"2X c #406075",
"3X c #466275",
"4X c #C7741C",
"5X c #E07708",
"6X c #4B5E5A",
"7X c #05B4DF",
"8X c #5E665C",
"9X c #E2710C",
"0X c #D27D0C",
"qX c #D87D0E",
"wX c #FD8F04",
"eX c #CC6909",
"rX c #5898BD",
"tX c #A76620",
"yX c #FF7E0E",
"uX c #FF820C",
"iX c #D97606",
"pX c #3E6C7B",
"aX c #09B1E0",
"sX c #D97109",
"dX c #FF8609",
"fX c #B57324",
"gX c #94652A",
"hX c #D96E0A",
"jX c #3E6A7C",
"kX c #02B8D9",
"lX c #3E6E7A",
"zX c #D97209",
"xX c #94622C",
"cX c #869581",
"vX c #A2640A",
"bX c #B36901",
"nX c #B3580A",
"mX c #984C08",
"MX c #2B4D56",
"NX c #008397",
"BX c #985802",
"VX c #B35F06",
"CX c #B36205",
"ZX c #A4670B",
"AX c #64756F",
/* pixels */
"        . . X X . .         . .   X .     . . X . .       . . . ",
"    . . . X . . . . . . . .   o O X . . . . + . .   . . . . + X ",
". . . . + . . . . . . .     @ # $ @ X + X . X .   . . + + X . . ",
".   . . . + .     . . . . % & * = & % . . + . . . + X . . .   . ",
".   . . + . + . . . . - ; : > , , < 1 2 3 X . . + . . X . . .   ",
". . X + . . + . + .   4 5 6 , , , , 7 8 4 . X . X . . . X + + . ",
"X + . . . . . X . X @ 9 0 q , , , , q 0 9 w + . + .   .   . . + ",
". . .   . . + . . . e r t y , , , , y t r u + . . X . . .   . . ",
"    . . . X . . . @ i p a s , , , , s a d f g .   . X . . .   . ",
"  . . . X . .   . h j k l s , , , , s l z x h   . . . X + . . . ",
"X + X . + . .   . c v b s n , , , , n s m v M . X . + . . X . . ",
". . . X . X . . X N B V C Z , , , , Z C A S N . . + . + . . + X ",
"    . . . + . . + D F G H J K , , K J H G L P . . + . . + + . . ",
"        . . + . + @ I U Y C T R E W C Y Q I @ . . + . . . . X . ",
". . .     . . + . . ! ~ ^ / ( ) _ ` / ^ ' ] . . X . .   . . X . ",
"X X + . . . . . X + . [ { } |  ...X.o.O.[   . X . .   . . X . + ",
". . . X + . . . . . +.@.#.$.%.&.*.=.-.;.:.>.,.<.. . . . X . . . ",
". . . . . X . . X 1.2.3.=.....4.5.6.-.3.7.8.9.0.+ . + X . . . . ",
". . . . . + . + . q.w.-.e.#.r.4.e.t.y.$...u.i.p.. + . . .   . . ",
"    . . . . + . . a.s.&.d.f.g.h.#.*.-.%.#.j.k.l.X . . .   . .   ",
". .     . X .   . z.x.c.v.b.n.m...=.M.e.&.N.B.. X . .   . . .   ",
". . . . . +     + V.C.Z.A.S.&.e.#.M.D...#.6.F.. + . .   . . .   ",
". . . + + . . + . G.H.J.K.L.5.P.I.5.P.h...y.U.. + . . .   . . . ",
"X X + . . . + . Y.T.R.E.W.Q.*.!.~. .^.%.;./.(.).. X . . .   . X ",
". . . + . . X . _.`.f.5.'.].I.7.[...{.M.-.r.}._.  . X . . . + . ",
"  . . X .   . + _.|.-.5.&.5.h.]. X[..XXXoXOX+X_..   . X . X . . ",
"X X + . .   . . @X#X-.^.m.'.[.$X%Xe.&X*X*X&X=X@X.   . X . +   . ",
". . . X + . . . _.-X..f.#.;X:X>X,X<X1X2X3X4X-X_.X . .   X . . . ",
". . . . . + . + @X-X3.D.&.5X6X7X7X8X9X0XqXwXeX@X. . . . X . .   ",
". . . . . . X . rXtXyXuX5.iXpXaXaXpXsX&.dX%.fXrX.     . + . .   ",
"        . . . X X gXf.&.%.hXjXkXkXlXzXf. X6.xX+ X . . X . . . . ",
". . . . . . . . . cXvXbXnXmXMXNXNXMXBXVXCXZXAX. . + X . .     . "
};
