/* XPM */
static char *eb51fcd418324ecfa2aefaa49263b259dDARQSw9E3lR8VwL[] = {
/* columns rows colors chars-per-pixel */
"32 32 156 2 ",
"   c #615838",
".  c #757A23",
"X  c #243E63",
"o  c #2B4D56",
"O  c #3E4F52",
"+  c #255070",
"@  c #345373",
"#  c #3E6C7B",
"$  c #5A5A4E",
"%  c #4B5E5A",
"&  c #5E665C",
"*  c #6B6B57",
"=  c #50656A",
"-  c #436175",
";  c #5B7577",
":  c #64756F",
">  c #985802",
",  c #984C08",
"<  c #B35C08",
"1  c #9C730F",
"2  c #9B6416",
"3  c #8F6F18",
"4  c #A3660B",
"5  c #B36603",
"6  c #A26B17",
"7  c #915725",
"8  c #84612D",
"9  c #93692B",
"0  c #94642B",
"q  c #976C35",
"w  c #9D7438",
"e  c #A76620",
"r  c #B66520",
"t  c #B37224",
"y  c #A86D3D",
"u  c #AA7D3D",
"i  c #CC5D10",
"p  c #CC6F06",
"a  c #CC6A09",
"s  c #CC610D",
"d  c #D96E0A",
"f  c #CB7504",
"g  c #CA7903",
"h  c #CE740E",
"j  c #DB7109",
"k  c #D77C09",
"l  c #C7771A",
"z  c #E37B07",
"x  c #E1740A",
"c  c #EF7F0D",
"v  c #E07A09",
"b  c #FF7D0F",
"n  c #E36D17",
"m  c #FF7B10",
"M  c #7A8226",
"N  c #6E9C3B",
"B  c #75A43F",
"V  c #74BC4D",
"C  c #7CBE4C",
"Z  c #73B146",
"A  c #69AC5E",
"S  c #71AE5E",
"D  c #73B35C",
"F  c #78BB59",
"G  c #629A76",
"H  c #5FB068",
"J  c #60A866",
"K  c #71B667",
"L  c #67B279",
"P  c #65B270",
"I  c #7CC16B",
"U  c #DC830E",
"Y  c #C68115",
"T  c #E28507",
"R  c #FF8D06",
"E  c #FF840B",
"W  c #FF8908",
"Q  c #FF9303",
"!  c #FF9800",
"~  c #82BF4E",
"^  c #82BE50",
"/  c #83C04B",
"(  c #8BC34A",
")  c #86C252",
"_  c #85C45B",
"`  c #83C36F",
"'  c #85C565",
"]  c #8ECA73",
"[  c #4D6F89",
"{  c #4A748C",
"}  c #497195",
"|  c #647E8F",
" . c #2987AD",
".. c #5E8D93",
"X. c #608A9B",
"o. c #56A68E",
"O. c #5DA897",
"+. c #62AF8B",
"@. c #67AC94",
"#. c #6DB094",
"$. c #7CB89A",
"%. c #78B789",
"&. c #5083AE",
"*. c #6B8CA9",
"=. c #7694AF",
"-. c #7795B0",
";. c #5EA5AB",
":. c #5DA3B1",
">. c #64A6B6",
",. c #599CC3",
"<. c #63A2C7",
"1. c #6EA8CB",
"2. c #77AECE",
"3. c #78AFCE",
"4. c #8E9B89",
"5. c #80BAA0",
"6. c #9AD393",
"7. c #88C6A8",
"8. c #9ED8B0",
"9. c #83B5D2",
"0. c #8DBBD6",
"q. c #94BFD8",
"w. c #9AC3DA",
"e. c #B1D7C5",
"r. c #A5D0D8",
"t. c #B9D7DA",
"y. c #B7E7D6",
"u. c #9DDAE6",
"i. c #BED8E6",
"p. c #B6E3EC",
"a. c #C1CFD8",
"s. c #C4D1DD",
"d. c #DAF0DE",
"f. c #C0DAE7",
"g. c #C3DBEA",
"h. c #C9DFEB",
"j. c #CFEFE4",
"k. c #C8E6ED",
"l. c #D4E5E7",
"z. c #D6E7F0",
"x. c #D8EDF3",
"c. c #CCF2F0",
"v. c #D5F2F4",
"b. c #D9F5F4",
"n. c #E2E9EE",
"m. c #E4F1EC",
"M. c #E3EEF4",
"N. c #E9EEF2",
"B. c #E3F3F5",
"V. c #ECF2F6",
"C. c #E7F6F9",
"Z. c #ECF4F8",
"A. c #E3F8F7",
"S. c #F3F7F9",
"D. c #F4FAFB",
"F. c #FEFEFE",
/* pixels */
"} } } } ,.,.u.u.,.,.} } } } 2.1.=.u.,.} } ,.,.u.,.,.} } } ,.,.,.",
"} } ,.,.,.u.,.,.,.,.,.,.,.<.S.V.F.F.V.,.,.,.c.,.,.} ,.,.,.,.c.u.",
",.,.,.,.c.,.,.,.,.,.,.,.*.F.D.%.6.i.F.F.u.,.u.,.} ,.,.c.c.u.,.,.",
",.} ,.,.,.c.,.} } ,.,.k.F.S.#.( ( 5.D.F.F.v.,.,.,.c.u.,.,.,.} ,.",
",.} ,.,.c.,.c.,.,.w.F.F.m.$.) ( ( ^ G z.F.F.<.,.c.,.,.u.,.,.,.} ",
",.,.u.c.,.,.c.,.c.D.V.+.P I ( ( ( ( F J e.F.v.,.u.,.,.,.u.c.c.,.",
"u.c.,.,.,.,.,.u.,.F.i.H C C ( ( ( ( C C H F.F.,.c.,.} ,.} ,.,.c.",
",.,.,.} ,.,.c.,.w.F.j.F C / ( ( ( ( / V F >.F.2.,.u.,.,.,.} ,.,.",
"} } ,.,.,.u.,.2.F.F.>._ V / ( ( ( ( C V _ y.M.B.} ,.u.,.,.,.} ,.",
"} ,.,.,.u.,.,.n.Z.m.8.K C / ( ( ( ( / C K O.o.S.1.,.,.u.c.,.,.,.",
"u.c.u.,.c.,.,.s.D.d.L A / / ( ( ( ( / / I L 7.C.p.,.c.,.,.u.,.,.",
",.,.,.u.,.u.,.w.F.t.D ` / C ( ( ( ( C / ` I ;.S.,.c.,.c.,.,.c.u.",
"} } ,.,.,.c.,.,.F.M.K ^ ~ ~ / ( ( / C / C ' >.F.,.c.,.,.c.c.,.,.",
"} } } } ,.,.c.,.D.S.7./ C ~ Z B B Z / C ) @.w.S.,.c.,.,.,.,.u.,.",
",.,.,.} } ,.,.c.i.F.k.S ~ N M 1 2 . N ~ ] F.S.<.u.,.,.} ,.,.u.,.",
"u.u.c.,.,.,.,.,.u.A.F...1 z Q R R Q k 3 ..N.C.F.F.1.} ,.,.u.,.c.",
",.,.,.u.c.,.,.,.0.S.l.Y R Q E W Q ! W Q Y X.S.s.F.9.,.,.u.,.,.,.",
",.,.,.,.,.u.,.,.k.r.q R ! R R R R b R R Q u { &.F.9.c.u.,.,.,.,.",
",.,.,.,.,.c.,.c.z.; h W E R Q R W b R ! W 8 + X F.b.,.,.,.} ,.,.",
"} } ,.,.,.,.c.,.F.* z W E R ! R R Q W E R 2 O @ F.3.,.,.} ,.,.} ",
",.,.} } ,.u.,.} F.y T l U R b R R ! W W W R 9 S.F.<.,.} ,.,.,.} ",
",.,.,.,.,.c.} -.D.9 y [ = z W W R W R W R E 7 F.D.9.,.} ,.,.,.} ",
",.,.,.c.c.,.<.F.N.u   D.| k W ! m W ! R W R 9 x.A.1.,.,.} ,.,.,.",
"u.u.c.,.,.,.b.Z.F.f l $ q W Q E W R E E Q W g F.C.u.,.,.,.} ,.u.",
",.,.,.c.,.,.p.D.F.s Q W Q W m Q Q W E W W ! g F.F.,.u.,.,.,.c.,.",
"} ,.,.u.,.} 1.F.F.f W W W W R E m Q T $ $ n i F.F.} ,.u.,.u.,.,.",
"u.u.c.,.,.} ,.F.F.f W m W ! Q j j E t S.N.t a F.D.} ,.u.,.c.} ,.",
",.,.,.u.c.,.,.F.F.a R Q W b r  . .6 l - - l f F.C.,.,.} u.,.,.,.",
",.,.,.,.,.c.,.F.M.a Q R W x % D.F.& x k k R a F.M.,.,.,.u.,.,.} ",
",.,.,.,.,.,.u.h.S.6 m E W k # F.F.# d E W E t F.F.} } ,.c.,.,.} ",
"} } } } ,.,.,.v.D.0 R W E d # F.F.# j Q m b 0 F.F.,.,.u.,.,.,.,.",
",.,.,.,.,.,.,.9.F.4.4 5 < , o F.D.o > < 5 4 : Z.Z.c.u.,.,.} } ,."
};
