/* XPM */
static char *_2c9cba41dc744749c8dba8a571455a6ogUwZt2WkQ70VlvB[] = {
/* columns rows colors chars-per-pixel */
"32 32 207 2 ",
"   c #1E1B1F",
".  c #181B22",
"X  c #202025",
"o  c #272D35",
"O  c #33353A",
"+  c #25323F",
"@  c #670214",
"#  c #662911",
"$  c #681526",
"%  c #5A4939",
"&  c #66482E",
"*  c #6C4F37",
"=  c #6D523A",
"-  c #755638",
";  c #052D40",
":  c #2A3E4E",
">  c #6E3A44",
",  c #275368",
"<  c #434245",
"1  c #755C43",
"2  c #62594F",
"3  c #717C43",
"4  c #4E5C66",
"5  c #677071",
"6  c #80031E",
"7  c #8A1A2F",
"8  c #A50229",
"9  c #CC1D2D",
"0  c #C60233",
"q  c #D80A34",
"w  c #855B0C",
"e  c #95630E",
"r  c #AF7510",
"t  c #836A36",
"y  c #AD3F42",
"u  c #AD5F4C",
"i  c #987A58",
"p  c #93714D",
"a  c #A37E54",
"s  c #A95668",
"d  c #817D6E",
"f  c #99747C",
"g  c #827D7A",
"h  c #7A925C",
"j  c #778A62",
"k  c #7A936B",
"l  c #6B8D74",
"z  c #AD8D08",
"x  c #A69A08",
"c  c #A19F1F",
"v  c #BEB109",
"b  c #BCB415",
"n  c #B0A710",
"m  c #9D9823",
"M  c #968B2E",
"N  c #A89E24",
"B  c #9CA02E",
"V  c #9CA43A",
"C  c #A6A627",
"Z  c #B4AD2F",
"A  c #928814",
"S  c #CABC05",
"D  c #C4B405",
"F  c #C7BF19",
"G  c #F8AF0F",
"H  c #F9BB0D",
"J  c #CCAE21",
"K  c #D1B62D",
"L  c #F8B02A",
"P  c #BEC23F",
"I  c #CDC10A",
"U  c #DBCA04",
"Y  c #D2C406",
"T  c #DFD91F",
"R  c #DED012",
"E  c #DED005",
"W  c #F9C30A",
"Q  c #E4D403",
"!  c #EADA02",
"~  c #E8DA0D",
"^  c #FCD406",
"/  c #F3DA04",
"(  c #E8DE16",
")  c #E4DC1B",
"_  c #E8DE19",
"`  c #EBCE05",
"'  c #EFE30F",
"]  c #F5E401",
"[  c #FAE602",
"{  c #FDED01",
"}  c #F2E50D",
"|  c #F6E809",
" . c #F7E907",
".. c #EDE213",
"X. c #EDE51C",
"o. c #F5EA18",
"O. c #CFCE29",
"+. c #D1CF2D",
"@. c #DBD524",
"#. c #CACB35",
"$. c #C4C63A",
"%. c #CACF38",
"&. c #CCD038",
"*. c #D8D935",
"=. c #EAE42A",
"-. c #8E9C48",
";. c #A68056",
":. c #A8855B",
">. c #B58C5D",
",. c #9BA749",
"<. c #B5BC49",
"1. c #A1AE5D",
"2. c #AAB553",
"3. c #A8B95B",
"4. c #B0B14D",
"5. c #8B926E",
"6. c #A28A67",
"7. c #BF9461",
"8. c #A7947E",
"9. c #9CB76F",
"0. c #93B378",
"q. c #B4B567",
"w. c #C5BD5C",
"e. c #C4BA40",
"r. c #C39763",
"t. c #C59A73",
"y. c #BBC347",
"u. c #B4C252",
"i. c #AEC15A",
"p. c #B9CE73",
"a. c #C4CD41",
"s. c #CCC446",
"d. c #D8D656",
"f. c #CAC76B",
"g. c #DFDB69",
"h. c #456B89",
"j. c #48758D",
"k. c #59798A",
"l. c #497195",
"z. c #567F96",
"x. c #506C84",
"c. c #667F8E",
"v. c #9E7380",
"b. c #5B8496",
"n. c #638C86",
"m. c #618292",
"M. c #799199",
"N. c #6F8C8B",
"B. c #7CA994",
"V. c #4E86A7",
"C. c #558AA8",
"Z. c #5591B4",
"A. c #5996B3",
"S. c #5696BC",
"D. c #5C9CBD",
"F. c #5B99B7",
"G. c #629EB7",
"H. c #7798AA",
"J. c #6DA2A9",
"K. c #74A3A7",
"L. c #7EADB7",
"P. c #599CC3",
"I. c #94908E",
"U. c #B7818C",
"Y. c #BBB689",
"T. c #B0AE9E",
"R. c #BDBE9D",
"E. c #8BA1AB",
"W. c #83B2BB",
"Q. c #AEB1B1",
"!. c #C5BAAE",
"~. c #B4CFBC",
"^. c #B6CDAB",
"/. c #C5C581",
"(. c #CBD394",
"). c #E1E081",
"_. c #D7CBAB",
"`. c #D8D6BB",
"'. c #CACDAC",
"]. c #EFEEAC",
"[. c #94B7C3",
"{. c #8FBDC6",
"}. c #AEBDC4",
"|. c #95CDD7",
" X c #99D1D5",
".X c #BAC2C4",
"XX c #B9CCCB",
"oX c #B0D0CF",
"OX c #B5CDD0",
"+X c #9DDAE6",
"@X c #CCD4D9",
"#X c #D9D9D9",
"$X c #CCCECF",
"%X c #CAE5D5",
"&X c #CEE6D3",
"*X c #E9E7DB",
"=X c #D3DFE6",
"-X c #C6EBE9",
";X c #CCEAEC",
":X c #DCE4E3",
">X c #CCF2F0",
",X c #E9E9E6",
"<X c #F0EFED",
"1X c #FCE8E4",
"2X c #FCFCFC",
"3X c #F6F6F6",
"4X c #F3F5ED",
/* pixels */
"l.l.l.l.P.P.+X+XP.P.l.l.l.l.P.P.l.+XP.l.l.P.P.+XP.P.l.l.l.P.P.P.",
"l.l.P.P.P.+XP.P.P.P.P.P.P.P.l.P.P.+XP.P.P.P.>XP.P.l.P.P.P.P.>X+X",
"P.P.P.P.>XP.P.P.P.P.P.P.l.l.P.P.>XP.+X>X+XP.+XP.l.P.P.>X>X+XP.P.",
"P.l.P.P.P.>XP.l.l.9...u.0.9.J.>XP.P.P.P.P.>XP.P.P.>X+XP.P.P.l.P.",
"P.j.A.h ^.P.>XP.P.$.{ { ] ] ) a.%.k j.D.P.+XP.P.>XP.P.+XP.P.P.l.",
"P.S.2.I n S.>XP.%X%.} ! N m E Q { X.%.O.%.K. XD.+XP.P.P.+X>X>XP.",
"+X>Xh x n A.P.+X%.) ~ _.3X3XR.I Y Y S { { | o...(.P.l.P.l.P.P.>X",
"P.P.Z.j M P.>XD.} { f.2XH.z.3Xt.Y.`.Y.v ! { $.3.| X.0.P.P.l.P.P.",
"l.l.P.Z.B |.P.F. .I O.*Xj., :X}.z.@X2XY.[ ' 2.+.{ X.*.G.P.P.l.P.",
"l.P.P.P.,.n.P.<.{ x { Z 2X2X#XOX; [.2X*X! { @.{ ..{ { p.>XP.P.P.",
"+X>X+XP.~.M F.) { Y S  ./.'.4.<X,X2X1X_.] ' +. ...P O.i.P.+XP.P.",
"P.P.P.+XP.C n.} { v x S Q U { w.,X1XL W G {  ...{ y.P =.G.P.-X+X",
"l.l.P.P.P.3.V { { ! A U / [ { { R J / ^ H ^ } { ..P P  .%X~.B b.",
"l.l.l.l.P.H.f.| } [ /.*Xt Z Y { ] D x ` / } ' { P { &.B.S.B v c ",
"P.P.P.l.l.E.).X.+.[ 4.Q.> <X!.# # # Q { { ..T ' { ..J.j.C.I v v ",
"+X+X>XP.P.V.2.{ { { r @ $ f f @ @ z { {  .] u.%...9.b.k Y u.V ^.",
"P.P.P.+X>XP.y.#.$.{ z @ q 0 8 6 w { ) { ..{ ( F B.l b -.|.P.P.P.",
"P.P.P.P.P.+X3.#.2.{ ^ e 9 q 9 r ] @.1.' ) ( w.T.Z V ~.+XP.P.P.P.",
"P.P.P.P.P.>XB.( X.{ H W ` U / { { T ) | | s.<X/.j -XP.P.P.l.P.P.",
"l.l.P.P.P.P.XX4XR.d.d.K H [ { { | @.{ ' [ `.2X$X{.P.P.P.l.P.P.l.",
"P.P.l.l.P.+XC.!.$X$X#XU.t.].g._ ( { ' ) d..XH.Z.+XP.P.l.P.P.P.l.",
"P.P.P.P.P.>Xh.a % d 8.s v..X;X:X&X'.p.%X;XQ.x.P.>XP.P.l.P.P.P.l.",
"P.P.P.>X>XP.A.a a a - 0 7 1 i 6.Q..XQ.I.1 a m.P.>XP.P.P.l.P.P.P.",
"|.K.oXP.P.z.p a a >.r.y u ;.p % - 7.% & * a b.+XP.+XP.P.P.l.P.+X",
"m.< , >XG.j M a :.4 5 d 6.>.7.r.r.r.* - 1 k.I.h.h.P.+XP.P.P.;XP.",
"I.< h.[.I.3 5 6.z.P.G.P.-XC.k.I.6.:.& & 2 V.o X . o P.+XP.+XP.P.",
"E.O .XQ.C.l.P.S.+XP.+X>XP.P.+Xl.F.W.2 p M n.k.I.; O z.+XP.>Xl.P.",
"5 X M.|.;XP.P.P.P.>XP.P.P.P.+XP.P.P.OXb.n.C k g W.z.P.l.+XP.P.P.",
"k.: V.P.P.>XP.>X+XP.+Xl.l.P.P.>XP.P.P.>XP.Z.,.U P.P.P.P.+XP.P.l.",
"P.P.P.P.P.P.+XP.P.P.>XP.P.l.P.+XP.l.P.P.+XP.>XP.P.l.l.P.>XP.P.l.",
"l.l.l.l.P.P.P.+X+XP.P.>XP.P.>XP.P.P.l.P.P.>XP.>X+XP.P.+XP.P.P.P.",
"P.P.P.P.P.P.P.P.P.+XP.+XP.+XP.P.P.l.P.P.P.+XP.P.P.;X+XP.P.l.l.P."
};
