/* XPM */
static char *_4691ae31fbf4afec88688440e38269dXpz91dC7pCrDgsna[] = {
/* columns rows colors chars-per-pixel */
"32 32 200 2 ",
"   c #1D1A1E",
".  c #2C292D",
"X  c #5F1D18",
"o  c #65081A",
"O  c #69111C",
"+  c #56231A",
"@  c #6B182A",
"#  c #664B34",
"$  c #624D39",
"%  c #6E5137",
"&  c #6F563E",
"*  c #745539",
"=  c #0B344B",
"-  c #3B4E5D",
";  c #2F5971",
":  c #4B4A4C",
">  c #5D5B5E",
",  c #625142",
"<  c #725941",
"1  c #774B54",
"2  c #466478",
"3  c #90112D",
"4  c #BF1A30",
"5  c #A7062E",
"6  c #CB0437",
"7  c #D40837",
"8  c #D11932",
"9  c #8C6512",
"0  c #AF7217",
"q  c #AF4A5F",
"w  c #AD4345",
"e  c #876C51",
"r  c #9D7A53",
"t  c #8B7452",
"y  c #B4624F",
"u  c #A37D54",
"i  c #8D7660",
"p  c #8F6B72",
"a  c #A26575",
"s  c #C47F73",
"d  c #7C8F66",
"f  c #9D8F1D",
"g  c #968E11",
"h  c #A4840D",
"j  c #A9960B",
"k  c #ABA20B",
"l  c #B6AD0A",
"z  c #A49C26",
"x  c #B0A922",
"c  c #BFB928",
"v  c #BBB835",
"b  c #B3AD39",
"n  c #C5B908",
"m  c #C7BD18",
"M  c #F5B411",
"N  c #D5B130",
"B  c #F8BF23",
"V  c #BFC33E",
"C  c #CCC106",
"Z  c #D7CB07",
"A  c #DED21A",
"S  c #ECCB08",
"D  c #F9C40C",
"F  c #E3D504",
"G  c #E9DA04",
"H  c #F9D806",
"J  c #E6DD17",
"K  c #E3DB1B",
"L  c #E8DE14",
"P  c #EFE40F",
"I  c #F3E401",
"U  c #FDED01",
"Y  c #F2E50D",
"T  c #F6E809",
"R  c #FCE405",
"E  c #EBE113",
"W  c #F8EB12",
"Q  c #D2CF2C",
"!  c #DBD623",
"~  c #D9D72A",
"^  c #CBCA32",
"/  c #C4C639",
"(  c #C7C837",
")  c #D7D931",
"_  c #C9C322",
"`  c #EEEB3D",
"'  c #8F9F51",
"]  c #8D9A4D",
"[  c #AA8555",
"{  c #B98F5F",
"}  c #A89D5D",
"|  c #9EAB5F",
" . c #AEA943",
".. c #AEB64F",
"X. c #BABF43",
"o. c #B4BA40",
"O. c #A9B354",
"+. c #A7AF57",
"@. c #958673",
"#. c #A69177",
"$. c #98AC65",
"%. c #8BA970",
"&. c #98BB79",
"*. c #B7B86C",
"=. c #B9BA75",
"-. c #ADAE6F",
";. c #C4BE57",
":. c #C39663",
">. c #C4A274",
",. c #B8C857",
"<. c #B9CA65",
"1. c #BCC07D",
"2. c #CBD348",
"3. c #D6DE59",
"4. c #CCCE4F",
"5. c #E0E651",
"6. c #D5CF6F",
"7. c #CFDB60",
"8. c #D4D479",
"9. c #D1CE6B",
"0. c #E0DE7D",
"q. c #E3DF6A",
"w. c #497195",
"e. c #537A90",
"r. c #667F96",
"t. c #687F8A",
"y. c #C17084",
"u. c #64889D",
"i. c #638498",
"p. c #7E8F90",
"a. c #7A8688",
"s. c #5983A2",
"d. c #7C97AB",
"f. c #749BB1",
"g. c #79ABAE",
"h. c #7CA8B3",
"j. c #6EA4BC",
"k. c #599CC3",
"l. c #619FC3",
"z. c #64A1C4",
"x. c #68A3C5",
"c. c #79A8C3",
"v. c #849393",
"b. c #889798",
"n. c #9B9D99",
"m. c #A69599",
"M. c #9ABB88",
"N. c #99B994",
"B. c #92AD8E",
"V. c #B5A486",
"C. c #A1B98C",
"Z. c #B6BB88",
"A. c #BBB997",
"S. c #869BAD",
"D. c #A09FA1",
"F. c #83A3B4",
"G. c #92A2AA",
"H. c #B0ABA2",
"J. c #A6B5B8",
"K. c #BAB9BA",
"L. c #AFB0A7",
"P. c #D3BC91",
"I. c #C0BBB8",
"U. c #BDCF93",
"Y. c #B3CD84",
"T. c #B3D1B3",
"R. c #C1C78B",
"E. c #CBC892",
"W. c #C6D69B",
"Q. c #DCEA83",
"!. c #C6C5A6",
"~. c #D0CEA9",
"^. c #D6D6AE",
"/. c #CADCB5",
"(. c #CBDAA9",
"). c #8DB4C7",
"_. c #94B4C6",
"`. c #B6BEC5",
"'. c #BDCCD4",
"]. c #BFDEDB",
"[. c #B2D2CD",
"{. c #9DDAE6",
"}. c #A1DAE4",
"|. c #AED9E1",
" X c #C9C9CA",
".X c #DADAC5",
"XX c #DBDBDA",
"oX c #C7D5DC",
"OX c #D6EDC9",
"+X c #EFEFC3",
"@X c #CDDAE0",
"#X c #CBE4E3",
"$X c #D4E5EA",
"%X c #CCF2F0",
"&X c #D1E7F1",
"*X c #EEEFEE",
"=X c #E7E7E5",
"-X c #FCEAEA",
";X c #F3F3F3",
":X c #FEFEFE",
/* pixels */
"w.w.w.w.k.k.{.{.k.k.w.w.w.w.k.k.w.{.k.w.w.k.k.{.k.k.w.w.w.k.k.k.",
"w.w.k.k.k.{.k.k.k.k.k.k.k.k.w.k.k.{.k.k.k.k.%Xk.k.w.k.k.k.k.%X{.",
"k.k.k.k.%Xk.k.k.k.k.k.k.w.w.k.k.%Xk.{.%X{.k.{.k.w.k.k.%X%X{.k.k.",
"k.w.k.k.k.%Xk.w.w.k.k.k.k.k.k.%Xk.c.U.J.N.0.j.k.k.%X{.k.k.k.w.k.",
"k.w.k.k.%Xk.%Xk.k.k.k.w.w.k.[.,.7.E R R U U Y.k.%Xk.k.[.&.k.k.w.",
"k.k.{.%Xk.k.%Xk.%Xj.w.B.<.3.Y U F P z z F Y Y.k.{.k.k.d C /.%Xk.",
"{.%Xk.k.k.k.k.T.2.5.) U U n C C l U.*X*X~.L ! M.%Xk.w.%.j N.k.%X",
"k.k.k.w.k.F.` W ..,.U C l A..XA.-.;Xe.h.:X6.U 2.k.{.j.B.*.u.k.k.",
"w.w.k.k.k.7.E T ^ | P U =.:XoXu.'.*X; i.=Xc l ) w.k.{.' _.k.w.k.",
"w.k.k.k.{.) U E T ! T F .X:X).= '.K.:X;X;.U g T M.k.j.Y.%Xl.k.k.",
"{.%X{.k.OX_ V E Y Q Y I P.-X:X*X=Xb E.*.I n F U 5.k.W.c.k.{.k.k.",
"k.k.k.{.<.,...U E U U M H B -X*X;.U Z G n g k U 2.%X' %Xk.k.%X{.",
"w.d l.k.&.^ V E U L H M H H N A U U U F C f I U ~ Y.B.k.%X%Xk.k.",
"d n b w.k.g.W ( T E T H I j n I G Z v t XXE.U P T =.J.k.k.k.{.k.",
"$.l _ d.w.k.M.U P ! K U T F X X + XX*X1 I. .U ^ K 8.c.w.k.k.{.k.",
"}.U.6.V 9.c.g.) ^ +.U Y U U h o o p p @ o h U T T *.w.k.k.{.k.%X",
"k.k.k.}.(.m E.^.c J U E U K U 9 3 5 6 6 O j U X.( <.k.k.{.k.k.k.",
"k.k.k.k.k.|.+.x L.-.L A J | ! U 0 8 7 4 9 U U ../ Z.%X{.k.k.k.k.",
"k.k.k.k.k.%Xk.T.R.;X4.I Y K K U U G S S D M U K ,.%Xk.k.k.w.k.k.",
"w.w.k.k.k.k.%Xk.x.$X.XU Y U ~ Y U U I M N q.9.!.].j.k.k.w.k.k.w.",
"k.k.w.w.k.}.k.w.k.#X'.2.E Y U T E 0.+X:.y. XXX XJ.k.k.w.k.k.k.w.",
"k.k.k.k.k.%Xw.w.%Xc.K.&X#XR./.$X$X@X[.a q m.e # V.k.k.w.k.k.k.w.",
"k.k.k.%X%Xk.k.%Xk.S.u , @.G.J.H.@.i & 5 7 * u u V.k.k.k.w.k.k.k.",
"{.{.%Xk.k.k.%Xk.k._.u * # # :.& $ r [ y w :.{ u @.n.j.k.k.d.f.{.",
"k.k.k.%Xk.k.{.k.k.i.I.e * * >.b.b.!.v.v.a.S.L.#.[ g Z.z.k.u.: f.",
"w.k.k.{.k.w.s.p.2 - XXi * # v.%X%Xk.k.k.w.k.{.l.p.b.Z.n.`.J.: ).",
"{.{.%Xk.k.w.2 > m.D.~.} a.t.}.w.k.{.k.k.w.k.k.{.k.w.k.|._.K.. f.",
"k.k.k.{.%Xk.c.).b.Z.o.l.k.k.{.k.k.k.%Xk.k.k.k.k.{.k.k.w.{.d.  r.",
"k.k.k.k.k.%Xk.%XT.N.}.w.w.k.k.%Xk.k.k.%Xk.k.k.{.k.k.k.k.{.k.i.r.",
"k.k.k.k.k.k.{.k.k.k.%Xk.k.w.k.{.k.w.k.k.{.k.%Xk.k.w.w.k.%Xk.k.w.",
"w.w.w.w.k.k.k.{.{.k.k.%Xk.k.%Xk.k.k.w.k.k.%Xk.%X{.k.k.{.k.k.k.k.",
"k.k.k.k.k.k.k.k.k.{.k.{.k.{.k.k.k.w.k.k.k.{.k.k.k.%X{.k.k.w.w.k."
};
